Newsreader6pt-ExtraBold.ufo
<glyph name="hyphen" format="2">
  <advance width="931"/>
  <unicode hex="002D"/>
  <outline>
    <contour>
      <point x="124.0" y="674.0" type="line"/>
      <point x="124.0" y="370.0" type="line"/>
      <point x="807.0" y="370.0" type="line"/>
      <point x="807.0" y="674.0" type="line"/>
    </contour>
  </outline>
</glyph>
<glyph name="colon" format="2">
  <advance width="712"/>
  <unicode hex="003A"/>
  <outline>
    <contour>
      <point x="356.0" y="437.0" type="curve" smooth="yes"/>
      <point x="204.0" y="437.0"/>
      <point x="108.0" y="347.0"/>
      <point x="108.0" y="204.0" type="curve" smooth="yes"/>
      <point x="108.0" y="60.0"/>
      <point x="204.0" y="-30.0"/>
      <point x="356.0" y="-30.0" type="curve" smooth="yes"/>
      <point x="508.0" y="-30.0"/>
      <point x="604.0" y="60.0"/>
      <point x="604.0" y="204.0" type="curve" smooth="yes"/>
      <point x="604.0" y="347.0"/>
      <point x="508.0" y="437.0"/>
    </contour>
    <contour>
      <point x="356.0" y="1074.0" type="curve" smooth="yes"/>
      <point x="204.0" y="1074.0"/>
      <point x="108.0" y="984.0"/>
      <point x="108.0" y="841.0" type="curve" smooth="yes"/>
      <point x="108.0" y="697.0"/>
      <point x="204.0" y="607.0"/>
      <point x="356.0" y="607.0" type="curve" smooth="yes"/>
      <point x="508.0" y="607.0"/>
      <point x="604.0" y="697.0"/>
      <point x="604.0" y="841.0" type="curve" smooth="yes"/>
      <point x="604.0" y="984.0"/>
      <point x="508.0" y="1074.0"/>
    </contour>
  </outline>
</glyph>
<glyph name="less" format="2">
  <advance width="1140"/>
  <unicode hex="003C"/>
  <outline>
    <contour>
      <point x="244.0" y="444.0" type="line"/>
      <point x="1033.0" y="789.0" type="line"/>
      <point x="1033.0" y="1074.0" type="line"/>
      <point x="88.0" y="649.0" type="line"/>
      <point x="88.0" y="394.0" type="line"/>
      <point x="1033.0" y="-30.0" type="line"/>
      <point x="1033.0" y="262.0" type="line"/>
      <point x="244.0" y="606.0" type="line"/>
    </contour>
  </outline>
</glyph>
<glyph name="bracketright" format="2">
  <advance width="923"/>
  <unicode hex="005D"/>
  <outline>
    <contour>
      <point x="739.0" y="1464.0" type="line"/>
      <point x="59.0" y="1464.0" type="line"/>
      <point x="59.0" y="1247.0" type="line"/>
      <point x="379.0" y="1247.0" type="line"/>
      <point x="379.0" y="0.0" type="line"/>
      <point x="59.0" y="0.0" type="line"/>
      <point x="59.0" y="-217.0" type="line"/>
      <point x="739.0" y="-217.0" type="line"/>
    </contour>
  </outline>
</glyph>
<glyph name="k" format="2">
  <advance width="1607"/>
  <unicode hex="006B"/>
  <anchor x="811.0" y="1464" name="UCtop"/>
  <anchor x="871.0" y="0" name="bottom"/>
  <outline>
    <contour>
      <point x="874.0" y="498.0" type="line"/>
      <point x="1352.0" y="905.0" type="line"/>
      <point x="1521.0" y="935.0" type="line"/>
      <point x="1521.0" y="1044.0" type="line"/>
      <point x="905.0" y="1044.0" type="line"/>
      <point x="905.0" y="935.0" type="line"/>
      <point x="1065.0" y="907.0" type="line"/>
      <point x="815.0" y="681.0" type="line"/>
      <point x="462.0" y="681.0" type="line"/>
      <point x="462.0" y="449.0" type="line"/>
      <point x="814.0" y="449.0" type="line"/>
      <point x="1024.0" y="102.0" type="line"/>
      <point x="1024.0" y="102.0" type="line"/>
      <point x="1024.0" y="0.0" type="line"/>
      <point x="1606.0" y="0.0" type="line"/>
      <point x="1606.0" y="102.0" type="line"/>
      <point x="1505.0" y="159.0" type="line"/>
      <point x="1093.0" y="797.0" type="line"/>
    </contour>
    <contour>
      <point x="655.0" y="152.0" type="line"/>
      <point x="655.0" y="1194.0" type="line"/>
      <point x="681.0" y="1494.0" type="line"/>
      <point x="559.0" y="1494.0" type="line"/>
      <point x="-5.0" y="1396.0" type="line"/>
      <point x="-5.0" y="1264.0" type="line"/>
      <point x="73.0" y="1210.163043478261"/>
      <point x="153.0" y="1154.945652173913"/>
      <point x="179.0" y="1137.0" type="curve"/>
      <point x="179.0" y="152.0" type="line"/>
      <point x="57.0" y="119.0" type="line"/>
      <point x="57.0" y="0.0" type="line"/>
      <point x="777.0" y="0.0" type="line"/>
      <point x="777.0" y="119.0" type="line"/>
    </contour>
  </outline>
</glyph>
<glyph name="x" format="2">
  <advance width="1486"/>
  <unicode hex="0078"/>
  <anchor x="781.0" y="1044.0" name="top"/>
  <anchor x="751.0" y="0" name="bottom"/>
  <outline>
    <contour>
      <point x="1376" y="143" type="line"/>
      <point x="984" y="616" type="line"/>
      <point x="951" y="656" type="line"/>
      <point x="731" y="922" type="line"/>
      <point x="731" y="932" type="line"/>
      <point x="731" y="1044" type="line"/>
      <point x="57" y="1044" type="line"/>
      <point x="57" y="932" type="line"/>
      <point x="162" y="901" type="line"/>
      <point x="509" y="482" type="line"/>
      <point x="535" y="451" type="line"/>
      <point x="807" y="122" type="line"/>
      <point x="807" y="111" type="line"/>
      <point x="807" y="0" type="line"/>
      <point x="1481" y="0" type="line"/>
      <point x="1481" y="111" type="line"/>
    </contour>
    <contour>
      <point x="702" y="474" type="line"/>
      <point x="1030" y="483" type="line"/>
      <point x="1325" y="900" type="line"/>
      <point x="1433" y="932" type="line"/>
      <point x="1433" y="1044" type="line"/>
      <point x="925" y="1044" type="line"/>
      <point x="925" y="932" type="line"/>
      <point x="1033" y="907" type="line"/>
      <point x="812" y="580" type="line"/>
      <point x="467" y="571" type="line"/>
      <point x="138" y="144" type="line"/>
      <point x="30" y="112" type="line"/>
      <point x="30" y="0" type="line"/>
      <point x="555" y="0" type="line"/>
      <point x="555" y="112" type="line"/>
      <point x="447" y="137" type="line"/>
    </contour>
  </outline>
</glyph>
<glyph name="ordfeminine" format="2">
  <advance width="1120"/>
  <unicode hex="00AA"/>
  <outline>
    <contour>
      <point x="136.0" y="412.0" type="line"/>
      <point x="1011.0" y="412.0" type="line"/>
      <point x="1011.0" y="612.0" type="line"/>
      <point x="136.0" y="612.0" type="line"/>
    </contour>
    <contour>
      <point x="597.0" y="1063.0" type="curve"/>
      <point x="597.0" y="1167.0" type="line"/>
      <point x="225.0" y="1124.0"/>
      <point x="126.0" y="1068.0"/>
      <point x="126.0" y="922.0" type="curve" smooth="yes"/>
      <point x="126.0" y="794.0"/>
      <point x="205.0" y="729.0"/>
      <point x="362.0" y="729.0" type="curve" smooth="yes"/>
      <point x="502.0" y="729.0"/>
      <point x="554.0" y="784.0"/>
      <point x="596.0" y="946.0" type="curve"/>
      <point x="586.0" y="936.0" type="line"/>
      <point x="596.0" y="792.0"/>
      <point x="664.0" y="729.0"/>
      <point x="791.0" y="729.0" type="curve" smooth="yes"/>
      <point x="859.0" y="729.0"/>
      <point x="929.0" y="747.0"/>
      <point x="1002.0" y="783.0" type="curve"/>
      <point x="1002.0" y="874.0" type="line"/>
      <point x="975.0" y="870.0"/>
      <point x="965.0" y="869.0"/>
      <point x="956.0" y="869.0" type="curve" smooth="yes"/>
      <point x="919.0" y="869.0"/>
      <point x="905.0" y="882.0"/>
      <point x="905.0" y="916.0" type="curve" smooth="yes"/>
      <point x="905.0" y="1196.0" type="line" smooth="yes"/>
      <point x="905.0" y="1367.0"/>
      <point x="806.0" y="1444.0"/>
      <point x="588.0" y="1444.0" type="curve" smooth="yes"/>
      <point x="359.0" y="1444.0"/>
      <point x="141.0" y="1352.0"/>
      <point x="141.0" y="1256.0" type="curve" smooth="yes"/>
      <point x="141.0" y="1216.0"/>
      <point x="176.0" y="1195.0"/>
      <point x="243.0" y="1195.0" type="curve" smooth="yes"/>
      <point x="327.0" y="1195.0"/>
      <point x="349.0" y="1212.0"/>
      <point x="372.0" y="1247.0" type="curve" smooth="yes"/>
      <point x="391.0" y="1276.0"/>
      <point x="401.0" y="1314.0"/>
      <point x="414.0" y="1385.0" type="curve"/>
      <point x="375.0" y="1297.0" type="line"/>
      <point x="402.0" y="1300.0"/>
      <point x="429.0" y="1301.0"/>
      <point x="469.0" y="1301.0" type="curve" smooth="yes"/>
      <point x="547.0" y="1301.0"/>
      <point x="574.0" y="1267.0"/>
      <point x="574.0" y="1196.0" type="curve" smooth="yes"/>
      <point x="574.0" y="972.0" type="line" smooth="yes"/>
      <point x="574.0" y="938.0"/>
      <point x="563.0" y="918.0"/>
      <point x="511.0" y="918.0" type="curve" smooth="yes"/>
      <point x="458.0" y="918.0"/>
      <point x="442.0" y="933.0"/>
      <point x="442.0" y="982.0" type="curve" smooth="yes"/>
      <point x="442.0" y="1036.0"/>
      <point x="473.0" y="1054.0"/>
    </contour>
  </outline>
</glyph>
<glyph name="degree" format="2">
  <advance width="745"/>
  <unicode hex="00B0"/>
  <outline>
    <contour>
      <point x="372.0" y="1434.0" type="curve" smooth="yes"/>
      <point x="200.0" y="1434.0"/>
      <point x="76.0" y="1313.0"/>
      <point x="76.0" y="1140.0" type="curve" smooth="yes"/>
      <point x="76.0" y="967.0"/>
      <point x="200.0" y="846.0"/>
      <point x="372.0" y="846.0" type="curve" smooth="yes"/>
      <point x="545.0" y="846.0"/>
      <point x="669.0" y="967.0"/>
      <point x="669.0" y="1140.0" type="curve" smooth="yes"/>
      <point x="669.0" y="1313.0"/>
      <point x="545.0" y="1434.0"/>
    </contour>
    <contour>
      <point x="372.0" y="1003.0" type="curve" smooth="yes"/>
      <point x="295.0" y="1003.0"/>
      <point x="240.0" y="1057.0"/>
      <point x="240.0" y="1140.0" type="curve" smooth="yes"/>
      <point x="240.0" y="1223.0"/>
      <point x="295.0" y="1277.0"/>
      <point x="372.0" y="1277.0" type="curve" smooth="yes"/>
      <point x="450.0" y="1277.0"/>
      <point x="504.0" y="1223.0"/>
      <point x="504.0" y="1140.0" type="curve" smooth="yes"/>
      <point x="504.0" y="1057.0"/>
      <point x="450.0" y="1003.0"/>
    </contour>
  </outline>
</glyph>
<glyph name="uni00B2" format="2">
  <advance width="872"/>
  <unicode hex="00B2"/>
  <outline>
    <contour>
      <point x="550.0" y="758.0" type="line"/>
      <point x="777.0" y="909.0" type="line"/>
      <point x="291.0" y="909.0" type="line"/>
      <point x="288.0" y="858.0" type="line"/>
      <point x="424.0" y="913.0" type="line" smooth="yes"/>
      <point x="711.0" y="1029.0"/>
      <point x="760.0" y="1098.0"/>
      <point x="760.0" y="1214.0" type="curve" smooth="yes"/>
      <point x="760.0" y="1366.0"/>
      <point x="649.0" y="1438.0"/>
      <point x="441.0" y="1438.0" type="curve" smooth="yes"/>
      <point x="233.0" y="1438.0"/>
      <point x="112.0" y="1361.0"/>
      <point x="43.0" y="1167.0" type="curve"/>
      <point x="166.0" y="1106.0" type="line"/>
      <point x="210.0" y="1180.0"/>
      <point x="247.0" y="1215.0"/>
      <point x="324.0" y="1215.0" type="curve" smooth="yes"/>
      <point x="399.0" y="1215.0"/>
      <point x="438.0" y="1190.0"/>
      <point x="438.0" y="1136.0" type="curve" smooth="yes"/>
      <point x="438.0" y="1071.0"/>
      <point x="406.0" y="1035.0"/>
      <point x="251.0" y="930.0" type="curve" smooth="yes"/>
      <point x="83.0" y="816.0" type="line"/>
      <point x="83.0" y="662.0" type="line"/>
      <point x="632.0" y="662.0" type="line"/>
      <point x="685.0" y="629.0" type="line"/>
      <point x="752.0" y="629.0" type="line"/>
      <point x="821.0" y="977.0" type="line"/>
      <point x="727.0" y="977.0" type="line"/>
    </contour>
  </outline>
</glyph>
<glyph name="divide" format="2">
  <advance width="1140"/>
  <unicode hex="00F7"/>
  <outline>
    <contour>
      <point x="570.0" y="317.0" type="curve" smooth="yes"/>
      <point x="458.0" y="317.0"/>
      <point x="387.0" y="251.0"/>
      <point x="387.0" y="144.0" type="curve" smooth="yes"/>
      <point x="387.0" y="37.0"/>
      <point x="458.0" y="-30.0"/>
      <point x="570.0" y="-30.0" type="curve" smooth="yes"/>
      <point x="682.0" y="-30.0"/>
      <point x="753.0" y="37.0"/>
      <point x="753.0" y="144.0" type="curve" smooth="yes"/>
      <point x="753.0" y="251.0"/>
      <point x="682.0" y="317.0"/>
    </contour>
    <contour>
      <point x="570.0" y="1074.0" type="curve" smooth="yes"/>
      <point x="458.0" y="1074.0"/>
      <point x="387.0" y="1008.0"/>
      <point x="387.0" y="901.0" type="curve" smooth="yes"/>
      <point x="387.0" y="794.0"/>
      <point x="458.0" y="727.0"/>
      <point x="570.0" y="727.0" type="curve" smooth="yes"/>
      <point x="682.0" y="727.0"/>
      <point x="753.0" y="794.0"/>
      <point x="753.0" y="901.0" type="curve" smooth="yes"/>
      <point x="753.0" y="1008.0"/>
      <point x="682.0" y="1074.0"/>
    </contour>
    <contour>
      <point x="110.0" y="656.0" type="line"/>
      <point x="110.0" y="388.0" type="line"/>
      <point x="1030.0" y="388.0" type="line"/>
      <point x="1030.0" y="656.0" type="line"/>
    </contour>
  </outline>
</glyph>
<glyph name="uni0163" format="2">
  <advance width="1146"/>
  <unicode hex="0163"/>
  <outline>
    <contour>
      <point x="685.0" y="397.0" type="curve" smooth="yes"/>
      <point x="685.0" y="1023.0" type="line"/>
      <point x="685.0" y="1342.0" type="line"/>
      <point x="565.0" y="1342.0" type="line"/>
      <point x="383.0936454849499" y="1244.0"/>
      <point x="50.83612040133779" y="1065.0"/>
      <point x="10.0" y="1043.0" type="curve"/>
      <point x="10.0" y="941.0" type="line"/>
      <point x="211.0" y="765.0" type="line"/>
      <point x="211.0" y="309.0" type="line" smooth="yes"/>
      <point x="211.0" y="85.0"/>
      <point x="341.0" y="-30.0"/>
      <point x="597.0" y="-30.0" type="curve" smooth="yes"/>
      <point x="725.0" y="-30.0"/>
      <point x="819.0" y="-2.0"/>
      <point x="1109.0" y="115.0" type="curve"/>
      <point x="1109.0" y="281.0" type="line"/>
      <point x="1015.0" y="264.0"/>
      <point x="941.0" y="258.0"/>
      <point x="876.0" y="258.0" type="curve" smooth="yes"/>
      <point x="725.0" y="258.0"/>
      <point x="685.0" y="292.0"/>
    </contour>
    <contour>
      <point x="489.0" y="790.0" type="line"/>
      <point x="1076.0" y="790.0" type="line"/>
      <point x="1076.0" y="1044.0" type="line"/>
      <point x="495.0" y="1044.0" type="line"/>
    </contour>
    <contour>
      <point x="566.0" y="-465.0" type="curve" smooth="yes"/>
      <point x="764.0" y="-465.0"/>
      <point x="904.0" y="-419.0"/>
      <point x="904.0" y="-263.0" type="curve" smooth="yes"/>
      <point x="904.0" y="-159.0"/>
      <point x="864.0" y="-102.0"/>
      <point x="597.0" y="-65.0" type="curve"/>
      <point x="603.0" y="-190.0" type="line"/>
      <point x="822.0" y="49.0" type="line"/>
      <point x="658.0" y="49.0" type="line"/>
      <point x="450.0" y="-184.0" type="line"/>
      <point x="450.0" y="-229.0" type="line"/>
      <point x="648.0" y="-250.0"/>
      <point x="680.0" y="-264.0"/>
      <point x="680.0" y="-307.0" type="curve" smooth="yes"/>
      <point x="680.0" y="-342.0"/>
      <point x="662.0" y="-356.0"/>
      <point x="603.0" y="-356.0" type="curve" smooth="yes"/>
      <point x="539.0" y="-356.0"/>
      <point x="458.0" y="-312.0"/>
      <point x="433.0" y="-312.0" type="curve" smooth="yes"/>
      <point x="410.0" y="-312.0"/>
      <point x="382.0" y="-329.0"/>
      <point x="382.0" y="-373.0" type="curve" smooth="yes"/>
      <point x="382.0" y="-437.0"/>
      <point x="415.0" y="-465.0"/>
    </contour>
  </outline>
</glyph>
<glyph name="Uogonek" format="2">
  <advance width="1834"/>
  <unicode hex="0172"/>
  <outline>
    <contour>
      <point x="1339.0" y="612.0" type="line" smooth="yes"/>
      <point x="1339.0" y="426.0"/>
      <point x="1255.0" y="338.0"/>
      <point x="1048.0" y="338.0" type="curve" smooth="yes"/>
      <point x="850.0" y="338.0"/>
      <point x="752.0" y="409.0"/>
      <point x="752.0" y="565.0" type="curve" smooth="yes"/>
      <point x="752.0" y="1231.0" type="line"/>
      <point x="920.0" y="1278.0" type="line"/>
      <point x="920.0" y="1414.0" type="line"/>
      <point x="46.0" y="1414.0" type="line"/>
      <point x="46.0" y="1278.0" type="line"/>
      <point x="214.0" y="1231.0" type="line"/>
      <point x="214.0" y="528.0" type="line" smooth="yes"/>
      <point x="214.0" y="130.0"/>
      <point x="453.0" y="-30.0"/>
      <point x="944.0" y="-30.0" type="curve" smooth="yes"/>
      <point x="1393.0" y="-30.0"/>
      <point x="1623.0" y="154.0"/>
      <point x="1623.0" y="580.0" type="curve" smooth="yes"/>
      <point x="1623.0" y="1231.0" type="line"/>
      <point x="1791.0" y="1278.0" type="line"/>
      <point x="1791.0" y="1414.0" type="line"/>
      <point x="1171.0" y="1414.0" type="line"/>
      <point x="1171.0" y="1278.0" type="line"/>
      <point x="1339.0" y="1231.0" type="line"/>
    </contour>
    <contour>
      <point x="1073.0" y="-76.0" type="curve" smooth="yes"/>
      <point x="1201.0" y="97.0" type="line"/>
      <point x="1092.0" y="97.0" type="line"/>
      <point x="953.0" y="-30.0" type="line" smooth="yes"/>
      <point x="809.0" y="-161.0"/>
      <point x="788.0" y="-218.0"/>
      <point x="788.0" y="-291.0" type="curve" smooth="yes"/>
      <point x="788.0" y="-403.0"/>
      <point x="845.0" y="-465.0"/>
      <point x="988.0" y="-465.0" type="curve" smooth="yes"/>
      <point x="1062.0" y="-465.0"/>
      <point x="1112.0" y="-447.0"/>
      <point x="1204.0" y="-387.0" type="curve"/>
      <point x="1204.0" y="-277.0" type="line"/>
      <point x="1150.0" y="-299.0"/>
      <point x="1123.0" y="-303.0"/>
      <point x="1081.0" y="-303.0" type="curve" smooth="yes"/>
      <point x="1036.0" y="-303.0"/>
      <point x="1000.0" y="-282.0"/>
      <point x="1000.0" y="-236.0" type="curve" smooth="yes"/>
      <point x="1000.0" y="-187.0"/>
      <point x="1013.0" y="-157.0"/>
    </contour>
  </outline>
</glyph>
<glyph name="uni0307" format="2">
  <unicode hex="0307"/>
  <anchor x="0" y="1044.0" name="_top"/>
  <anchor x="0" y="1387.0" name="top"/>
  <anchor x="0" y="1301.0" name="_mid"/>
  <outline>
    <contour>
      <point x="0.0" y="1144.0" type="curve" smooth="yes"/>
      <point x="155.0" y="1144.0"/>
      <point x="222.0" y="1199.0"/>
      <point x="222.0" y="1304.0" type="curve" smooth="yes"/>
      <point x="222.0" y="1408.0"/>
      <point x="155.0" y="1458.0"/>
      <point x="0.0" y="1458.0" type="curve" smooth="yes"/>
      <point x="-155.0" y="1458.0"/>
      <point x="-222.0" y="1408.0"/>
      <point x="-222.0" y="1304.0" type="curve" smooth="yes"/>
      <point x="-222.0" y="1199.0"/>
      <point x="-155.0" y="1144.0"/>
    </contour>
  </outline>
</glyph>
<glyph name="uni0308" format="2">
  <unicode hex="0308"/>
  <anchor x="0" y="1044.0" name="_top"/>
  <anchor x="0" y="1387.0" name="top"/>
  <outline>
    <contour>
      <point x="-250.0" y="1153.0" type="curve" smooth="yes"/>
      <point x="-126.0" y="1153.0"/>
      <point x="-73.0" y="1205.0"/>
      <point x="-73.0" y="1304.0" type="curve" smooth="yes"/>
      <point x="-73.0" y="1402.0"/>
      <point x="-126.0" y="1449.0"/>
      <point x="-250.0" y="1449.0" type="curve" smooth="yes"/>
      <point x="-374.0" y="1449.0"/>
      <point x="-427.0" y="1402.0"/>
      <point x="-427.0" y="1304.0" type="curve" smooth="yes"/>
      <point x="-427.0" y="1205.0"/>
      <point x="-374.0" y="1153.0"/>
    </contour>
    <contour>
      <point x="250.0" y="1153.0" type="curve" smooth="yes"/>
      <point x="374.0" y="1153.0"/>
      <point x="427.0" y="1205.0"/>
      <point x="427.0" y="1304.0" type="curve" smooth="yes"/>
      <point x="427.0" y="1402.0"/>
      <point x="374.0" y="1449.0"/>
      <point x="250.0" y="1449.0" type="curve" smooth="yes"/>
      <point x="126.0" y="1449.0"/>
      <point x="73.0" y="1402.0"/>
      <point x="73.0" y="1304.0" type="curve" smooth="yes"/>
      <point x="73.0" y="1205.0"/>
      <point x="126.0" y="1153.0"/>
    </contour>
  </outline>
</glyph>
<glyph name="daggerdbl" format="2">
  <advance width="993"/>
  <unicode hex="2021"/>
  <outline>
    <contour>
      <point x="497.0" y="1285.0" type="line"/>
      <point x="128.0" y="1321.0" type="line"/>
      <point x="128.0" y="1091.0" type="line"/>
      <point x="497.0" y="1091.0" type="line"/>
      <point x="865.0" y="1091.0" type="line"/>
      <point x="865.0" y="1321.0" type="line"/>
    </contour>
    <contour>
      <point x="653.0" y="1041.0" type="line"/>
      <point x="653.0" y="1270.0" type="line"/>
      <point x="672.0" y="1464.0" type="line"/>
      <point x="323.0" y="1464.0" type="line"/>
      <point x="342.0" y="1270.0" type="line"/>
      <point x="342.0" y="1041.0" type="line"/>
      <point x="342.0" y="822.0" type="line"/>
      <point x="323.0" y="627.0" type="line"/>
      <point x="672.0" y="627.0" type="line"/>
      <point x="653.0" y="822.0" type="line"/>
    </contour>
    <contour>
      <point x="497.0" y="806.0" type="line"/>
      <point x="865.0" y="770.0" type="line"/>
      <point x="865.0" y="1000.0" type="line"/>
      <point x="497.0" y="1000.0" type="line"/>
      <point x="128.0" y="1000.0" type="line"/>
      <point x="128.0" y="770.0" type="line"/>
    </contour>
  </outline>
</glyph>
<glyph name="lessequal" format="2">
  <advance width="1140"/>
  <unicode hex="2264"/>
  <outline>
    <contour>
      <point x="67.0" y="268.0" type="line"/>
      <point x="67.0" y="0.0" type="line"/>
      <point x="1067.0" y="0.0" type="line"/>
      <point x="1067.0" y="268.0" type="line"/>
    </contour>
    <contour>
      <point x="67.0" y="491.0" type="line"/>
      <point x="1067.0" y="221.0" type="line"/>
      <point x="1067.0" y="506.0" type="line"/>
      <point x="288.0" y="673.0" type="line"/>
      <point x="288.0" y="620.0" type="line"/>
      <point x="1067.0" y="793.0" type="line"/>
      <point x="1067.0" y="1074.0" type="line"/>
      <point x="67.0" y="804.0" type="line"/>
    </contour>
  </outline>
</glyph>
<glyph name="fi" format="2">
  <advance width="1734"/>
  <unicode hex="FB01"/>
  <outline>
    <contour>
      <point x="1136.0" y="790.0" type="line"/>
      <point x="1077.0" y="850.0" type="line"/>
      <point x="1077.0" y="152.0" type="line"/>
      <point x="955.0" y="119.0" type="line"/>
      <point x="955.0" y="0.0" type="line"/>
      <point x="1675.0" y="0.0" type="line"/>
      <point x="1675.0" y="119.0" type="line"/>
      <point x="1553.0" y="152.0" type="line"/>
      <point x="1553.0" y="704.0" type="line"/>
      <point x="1579.0" y="1044.0" type="line"/>
      <point x="1437.0" y="1044.0" type="line"/>
      <point x="1140.0" y="1044.0" type="line"/>
      <point x="519.0" y="1044.0" type="line"/>
      <point x="269.0" y="1077.0" type="line"/>
      <point x="25.0" y="962.0" type="line"/>
      <point x="25.0" y="873.0" type="line"/>
      <point x="251.0" y="764.0" type="line"/>
      <point x="513.0" y="790.0" type="line"/>
    </contour>
    <contour>
      <point x="727.0" y="152.0" type="line"/>
      <point x="727.0" y="1112.0" type="line" smooth="yes"/>
      <point x="727.0" y="1225.0"/>
      <point x="792.0" y="1269.0"/>
      <point x="925.0" y="1269.0" type="curve" smooth="yes"/>
      <point x="1133.0" y="1269.0"/>
      <point x="1172.0" y="1098.0"/>
      <point x="1220.0" y="1098.0" type="curve" smooth="yes"/>
      <point x="1348.0" y="1098.0"/>
      <point x="1434.0" y="1194.0"/>
      <point x="1434.0" y="1281.0" type="curve" smooth="yes"/>
      <point x="1434.0" y="1430.0"/>
      <point x="1322.0" y="1494.0"/>
      <point x="933.0" y="1494.0" type="curve" smooth="yes"/>
      <point x="444.0" y="1494.0"/>
      <point x="251.0" y="1359.0"/>
      <point x="251.0" y="995.0" type="curve" smooth="yes"/>
      <point x="251.0" y="152.0" type="line"/>
      <point x="129.0" y="119.0" type="line"/>
      <point x="129.0" y="0.0" type="line"/>
      <point x="849.0" y="0.0" type="line"/>
      <point x="849.0" y="119.0" type="line"/>
    </contour>
  </outline>
</glyph>
<glyph name="dollar.lf" format="2">
  <advance width="1422"/>
  <outline>
    <contour>
      <point x="565.0" y="-30.0" type="curve" smooth="yes"/>
      <point x="1080.0" y="-30.0"/>
      <point x="1318.0" y="132.0"/>
      <point x="1318.0" y="480.0" type="curve" smooth="yes"/>
      <point x="1318.0" y="737.0"/>
      <point x="1194.0" y="874.0"/>
      <point x="895.0" y="927.0" type="curve" smooth="yes"/>
      <point x="595.0" y="981.0"/>
      <point x="568.0" y="1009.0"/>
      <point x="568.0" y="1096.0" type="curve" smooth="yes"/>
      <point x="568.0" y="1178.0"/>
      <point x="626.0" y="1216.0"/>
      <point x="778.0" y="1216.0" type="curve" smooth="yes"/>
      <point x="972.0" y="1216.0"/>
      <point x="1069.0" y="1030.0"/>
      <point x="1123.0" y="1030.0" type="curve" smooth="yes"/>
      <point x="1216.0" y="1030.0"/>
      <point x="1289.0" y="1112.0"/>
      <point x="1289.0" y="1214.0" type="curve" smooth="yes"/>
      <point x="1289.0" y="1377.0"/>
      <point x="1155.0" y="1444.0"/>
      <point x="828.0" y="1444.0" type="curve" smooth="yes"/>
      <point x="333.0" y="1444.0"/>
      <point x="107.0" y="1293.0"/>
      <point x="107.0" y="964.0" type="curve" smooth="yes"/>
      <point x="107.0" y="739.0"/>
      <point x="198.0" y="585.0"/>
      <point x="492.0" y="521.0" type="curve" smooth="yes"/>
      <point x="786.0" y="457.0"/>
      <point x="840.0" y="440.0"/>
      <point x="840.0" y="331.0" type="curve" smooth="yes"/>
      <point x="840.0" y="244.0"/>
      <point x="780.0" y="198.0"/>
      <point x="616.0" y="198.0" type="curve" smooth="yes"/>
      <point x="421.0" y="198.0"/>
      <point x="324.0" y="384.0"/>
      <point x="270.0" y="384.0" type="curve" smooth="yes"/>
      <point x="179.0" y="384.0"/>
      <point x="106.0" y="302.0"/>
      <point x="106.0" y="200.0" type="curve" smooth="yes"/>
      <point x="106.0" y="37.0"/>
      <point x="239.0" y="-30.0"/>
    </contour>
    <contour>
      <point x="660.0" y="1312.0" type="line"/>
      <point x="660.0" y="1650.0" type="line"/>
      <point x="466.0" y="1650.0" type="line"/>
      <point x="466.0" y="1312.0" type="line"/>
    </contour>
    <contour>
      <point x="1007.0" y="1312.0" type="line"/>
      <point x="1007.0" y="1650.0" type="line"/>
      <point x="813.0" y="1650.0" type="line"/>
      <point x="813.0" y="1312.0" type="line"/>
    </contour>
    <contour>
      <point x="466.0" y="98.0" type="line"/>
      <point x="466.0" y="-237.0" type="line"/>
      <point x="660.0" y="-237.0" type="line"/>
      <point x="660.0" y="98.0" type="line"/>
    </contour>
    <contour>
      <point x="813.0" y="98.0" type="line"/>
      <point x="813.0" y="-237.0" type="line"/>
      <point x="1007.0" y="-237.0" type="line"/>
      <point x="1007.0" y="98.0" type="line"/>
    </contour>
  </outline>
</glyph>
<glyph name="gravecomb.case" format="2">
  <anchor x="0" y="1414.0" name="_UCtop"/>
  <anchor x="0" y="1941.0" name="UCtop"/>
  <outline>
    <contour>
      <point x="123.0" y="1544.0" type="line"/>
      <point x="-30.0" y="1870.0" type="line"/>
      <point x="-460.0" y="1870.0" type="line"/>
      <point x="-460.0" y="1796.0" type="line"/>
      <point x="-89.0" y="1544.0" type="line"/>
    </contour>
  </outline>
</glyph>
<glyph name="uni0302_hookabovecomb" format="2">
  <anchor x="0" y="1044.0" name="_top"/>
  <outline>
    <contour>
      <point x="44.0" y="1295.0" type="line"/>
      <point x="-44.0" y="1295.0" type="line"/>
      <point x="146.0" y="1138.0" type="line"/>
      <point x="422.0" y="1138.0" type="line"/>
      <point x="162.0" y="1464.0" type="line"/>
      <point x="-162.0" y="1464.0" type="line"/>
      <point x="-422.0" y="1138.0" type="line"/>
      <point x="-146.0" y="1138.0" type="line"/>
    </contour>
    <contour>
      <point x="366.0" y="1411.0" type="curve"/>
      <point x="382.0" y="1298.0" type="line"/>
      <point x="652.0" y="1338.0"/>
      <point x="718.0" y="1432.0"/>
      <point x="718.0" y="1548.0" type="curve" smooth="yes"/>
      <point x="718.0" y="1677.0"/>
      <point x="657.0" y="1738.0"/>
      <point x="224.0" y="1734.0" type="curve"/>
      <point x="221.0" y="1535.0" type="line"/>
      <point x="448.0" y="1544.0"/>
      <point x="471.0" y="1510.0"/>
      <point x="471.0" y="1474.0" type="curve" smooth="yes"/>
      <point x="471.0" y="1441.0"/>
      <point x="455.0" y="1424.0"/>
    </contour>
  </outline>
</glyph>
<glyph name="uni0302_tildecomb" format="2">
  <anchor x="0" y="1044.0" name="_top"/>
  <outline>
    <contour>
      <point x="60.0" y="1249.0" type="line"/>
      <point x="-62.0" y="1249.0" type="line"/>
      <point x="157.0" y="1109.0" type="line"/>
      <point x="393.0" y="1109.0" type="line"/>
      <point x="195.0" y="1342.0" type="line"/>
      <point x="-195.0" y="1342.0" type="line"/>
      <point x="-393.0" y="1109.0" type="line"/>
      <point x="-157.0" y="1109.0" type="line"/>
    </contour>
    <contour>
      <point x="-180.0" y="1390.0" type="line"/>
      <point x="-174.0" y="1434.0"/>
      <point x="-156.0" y="1442.0"/>
      <point x="-107.0" y="1442.0" type="curve" smooth="yes"/>
      <point x="-50.0" y="1442.0"/>
      <point x="50.0" y="1390.0"/>
      <point x="146.0" y="1390.0" type="curve" smooth="yes"/>
      <point x="309.0" y="1390.0"/>
      <point x="354.0" y="1434.0"/>
      <point x="364.0" y="1598.0" type="curve"/>
      <point x="180.0" y="1598.0" type="line"/>
      <point x="174.0" y="1554.0"/>
      <point x="156.0" y="1546.0"/>
      <point x="107.0" y="1546.0" type="curve" smooth="yes"/>
      <point x="50.0" y="1546.0"/>
      <point x="-50.0" y="1598.0"/>
      <point x="-146.0" y="1598.0" type="curve" smooth="yes"/>
      <point x="-309.0" y="1598.0"/>
      <point x="-354.0" y="1554.0"/>
      <point x="-364.0" y="1390.0" type="curve"/>
    </contour>
  </outline>
</glyph>
<glyph name="uni030C.case" format="2">
  <anchor x="0" y="1414.0" name="_UCtop"/>
  <anchor x="0" y="1870.0" name="UCtop"/>
  <outline>
    <contour>
      <point x="44.0" y="1713.0" type="line"/>
      <point x="-146.0" y="1870.0" type="line"/>
      <point x="-422.0" y="1870.0" type="line"/>
      <point x="-162.0" y="1544.0" type="line"/>
      <point x="162.0" y="1544.0" type="line"/>
      <point x="422.0" y="1870.0" type="line"/>
      <point x="146.0" y="1870.0" type="line"/>
      <point x="-44.0" y="1713.0" type="line"/>
    </contour>
  </outline>
</glyph>
